<?xml version="1.0" encoding="utf-8"?>
<!-- Generator: Adobe Illustrator 19.2.1, SVG Export Plug-In . SVG Version: 6.00 Build 0)  -->
<svg version="1.1" xmlns="http://www.w3.org/2000/svg" xmlns:xlink="http://www.w3.org/1999/xlink" x="0px" y="0px"
	 viewBox="0 0 128 80" style="enable-background:new 0 0 128 80;" xml:space="preserve">
<style type="text/css">
	.st0{fill-rule:evenodd;clip-rule:evenodd;fill:url(#SVGID_1_);}
	.st1{fill-rule:evenodd;clip-rule:evenodd;fill:url(#SVGID_2_);}
</style>
<g id="btn_x5F__x5F_buy_x5F__x5F_hover">
	<linearGradient id="SVGID_1_" gradientUnits="userSpaceOnUse" x1="64.1074" y1="40.5605" x2="63.8912" y2="79.694">
		<stop  offset="0" style="stop-color:#A78D74"/>
		<stop  offset="1" style="stop-color:#967F66"/>
	</linearGradient>
	<path class="st0" d="M127.6,78.6c-1.2,0-2.1-1-2.1-2.1c0-1.2,1-2.1,2.1-2.1c0.1,0,0.3,0,0.4,0v-2.2c-0.1,0-0.3,0-0.4,0
		c-1.2,0-2.1-1-2.1-2.2c0-1.2,1-2.2,2.1-2.2c0.1,0,0.3,0,0.4,0v-2.3c-2.8-0.3-5-2.7-5-5.6c0-2.9,2.2-5.3,5-5.6v-2.3
		c-0.1,0-0.3,0-0.4,0c-1.2,0-2.1-1-2.1-2.2c0-1.2,1-2.2,2.1-2.2c0.1,0,0.3,0,0.4,0v-2.2c-0.1,0-0.3,0-0.4,0c-1.2,0-2.1-1-2.1-2.1
		c0-1.2,1-2.1,2.1-2.1c0.1,0,0.3,0,0.4,0V40H0v1.5c0.1,0,0.3,0,0.4,0c1.2,0,2.1,1,2.1,2.1c0,1.2-1,2.1-2.1,2.1c-0.1,0-0.3,0-0.4,0
		v2.2c0.1,0,0.3,0,0.4,0c1.2,0,2.1,1,2.1,2.2c0,1.2-1,2.2-2.1,2.2c-0.1,0-0.3,0-0.4,0v2.3c2.8,0.3,5,2.7,5,5.6c0,2.9-2.2,5.3-5,5.6
		v2.3c0.1,0,0.3,0,0.4,0c1.2,0,2.1,1,2.1,2.2c0,1.2-1,2.2-2.1,2.2c-0.1,0-0.3,0-0.4,0v2.2c0.1,0,0.3,0,0.4,0c1.2,0,2.1,1,2.1,2.1
		c0,1.2-1,2.1-2.1,2.1c-0.1,0-0.3,0-0.4,0V80h128v-1.5C127.9,78.5,127.7,78.6,127.6,78.6z"/>
</g>
<g id="btn_x5F__x5F_buy">
	<linearGradient id="SVGID_2_" gradientUnits="userSpaceOnUse" x1="63.8915" y1="0.4633" x2="64.1077" y2="39.3806">
		<stop  offset="0" style="stop-color:#847061"/>
		<stop  offset="1" style="stop-color:#625144"/>
	</linearGradient>
	<path class="st1" d="M127.6,38.6c-1.2,0-2.1-1-2.1-2.1c0-1.2,1-2.1,2.1-2.1c0.1,0,0.3,0,0.4,0v-2.2c-0.1,0-0.3,0-0.4,0
		c-1.2,0-2.1-1-2.1-2.2c0-1.2,1-2.2,2.1-2.2c0.1,0,0.3,0,0.4,0v-2.3c-2.8-0.3-5-2.7-5-5.6s2.2-5.3,5-5.6v-2.3c-0.1,0-0.3,0-0.4,0
		c-1.2,0-2.1-1-2.1-2.2s1-2.2,2.1-2.2c0.1,0,0.3,0,0.4,0V5.7c-0.1,0-0.3,0-0.4,0c-1.2,0-2.1-1-2.1-2.1c0-1.2,1-2.1,2.1-2.1
		c0.1,0,0.3,0,0.4,0V0H0v1.5c0.1,0,0.3,0,0.4,0c1.2,0,2.1,1,2.1,2.1c0,1.2-1,2.1-2.1,2.1c-0.1,0-0.3,0-0.4,0v2.2c0.1,0,0.3,0,0.4,0
		c1.2,0,2.1,1,2.1,2.2s-1,2.2-2.1,2.2c-0.1,0-0.3,0-0.4,0v2.3c2.8,0.3,5,2.7,5,5.6s-2.2,5.3-5,5.6v2.3c0.1,0,0.3,0,0.4,0
		c1.2,0,2.1,1,2.1,2.2c0,1.2-1,2.2-2.1,2.2c-0.1,0-0.3,0-0.4,0v2.2c0.1,0,0.3,0,0.4,0c1.2,0,2.1,1,2.1,2.1c0,1.2-1,2.1-2.1,2.1
		c-0.1,0-0.3,0-0.4,0V40h128v-1.5C127.9,38.5,127.7,38.6,127.6,38.6z"/>
</g>
</svg>
