<svg xmlns="http://www.w3.org/2000/svg" id="Layer_1" viewBox="0 0 101 72.347459" ><style id="style3">.st0{fill-rule:evenodd;clip-rule:evenodd;fill:#796658;} .st1{fill:#796658;}</style><g id="g4169" fill="#796658"><path id="path5" d="M82.99 18.702c-.272-.817-.608-1.36-1.137-2.017-1.264-1.137-2.53-1.633-4.242-1.953-1.28-3.586-2.528-7.156-3.793-10.726 1.617.4 3.298.896 4.61 1.97 1.393 1.15 2.338 2.4 3.058 4.05L82.99 18.7zM67.253 4.038c1.905-.257 3.842-.337 5.844-.16 1.296 3.585 2.593 7.17 3.89 10.773-4.963-.16-9.606 1.602-14.12 3.475-1.777-3.826-3.554-7.652-5.33-11.462 3.153-1.17 6.37-2.16 9.716-2.625zM46.41 10.345l-.272-.128-.705-1.473.08-.288.85-.448.27.128.705 1.473-.08.287-.848.448zm-7.3 1.457l.064-.288.88-.417.272.13.69 1.455-.065.29-.88.415-.256-.128-.704-1.458zm-2.033.928l.064-.272.865-.384.256.128.69 1.457-.064.287-.865.384-.255-.127-.688-1.473zm-1.986.865l.065-.272.833-.368.256.144.672 1.455-.064.273-.832.352-.256-.144-.673-1.44zm45.002 3.97l-.016.16-.416-.112-.144-.208-.448-1.345.016-.16.432.128.144.208.432 1.33zm.88.368l-.015.16-.368-.16-.13-.208-.416-1.33.016-.16.513.386.4 1.313zm.753.45v.143l-.304-.208-.11-.225-.385-1.312.016-.143.32.208.113.224.352 1.312zm-27.807 7.54l-.272-.13-.705-1.472.08-.287.418-.24.432-.21.272.13.704 1.472-.08.288-.848.45zm3.058-1.762l-.064.29-.913.43-.273-.127-.704-1.473.08-.288.912-.432.272.128.69 1.473zm-38.422-8.596v-.144l.304.208.113.224.385 1.313-.016.144-.32-.21-.114-.223-.352-1.313zm.753.448l.016-.16.368.16.13.208.415 1.33-.016.16-.385-.177-.128-.224-.4-1.298zm.88.368l.016-.16.416.112.144.21.448 1.343-.016.16-.432-.128-.145-.208-.433-1.33zm40.983 5.78l-.064.288-.88.416-.273-.128-.704-1.457.063-.29.88-.415.257.128.72 1.457zm2.017-.945l-.064.272-.864.384-.258-.127-.688-1.456.064-.29.865-.383.256.128.687 1.473zm1.985-.864l-.064.273-.832.368-.257-.127-.673-1.457.064-.272.85-.352.256.144.656 1.425zM52.67 26.515l-.93.432-.27-.128-.706-1.457.08-.287.93-.432.27.13.705 1.456-.08.288zm-2.162 1.01l-.93.415-.27-.13-.705-1.456.08-.288.93-.416.27.128.705 1.456-.08.29zm-2.16.975l-.93.4-.272-.13-.688-1.456.08-.272.912-.4.272.128.69 1.457-.065.272zm-2.162.912l-.913.368-.272-.144-.687-1.457.08-.273.912-.368.272.127.69 1.456-.08.29zm-2.162.848l-.896.336-.256-.144-.673-1.44.08-.273.896-.337.256.144.672 1.457-.08.256zm-2.097.737l-.88.288-.256-.144-.656-1.44.064-.256.88-.288.257.144.656 1.44-.063.257zm-2.065.656l-.864.24-.257-.16-.64-1.44.065-.24.85-.24.255.16.64 1.44-.048.24zm-2 .528l-.833.193-.242-.16-.608-1.425.064-.24.833-.192.24.16.624 1.425-.08.24zm-1.954.417l-.817.144-.24-.175-.59-1.408.063-.225.8-.144.24.177.61 1.424-.065.207zm-1.873.273l-.785.08-.224-.192-.576-1.41.064-.207.768-.08.225.177.592 1.408-.065.225zm-1.81.16l-.736.016-.21-.192-.543-1.393.064-.19.72-.033.226.192.56 1.392-.08.208zm-1.712.016l-.704-.032-.21-.208-.512-1.377.048-.193.69.032.207.19.528 1.394-.047.192zm-1.617-.128l-.656-.096-.192-.21-.497-1.36.05-.175.64.08.192.208.512 1.376-.048.178zm-1.537-.257l-.61-.143-.175-.224-.465-1.344.05-.162.59.144.177.21.48 1.36-.048.16zm-1.41-.367l-.56-.192-.16-.223-.432-1.33.048-.143.544.192.176.224.448 1.345-.064.128zm-1.296-.496l-.513-.24-.143-.24-.4-1.313.032-.144.495.24.16.224.417 1.33-.048.143zm-1.17-.624l-.463-.29-.143-.24-.37-1.295.033-.128.45.288.143.24.384 1.313-.032.113zm-1.072-.705l-.416-.336-.128-.24-.336-1.28.016-.113.4.32.128.24.352 1.296-.016.112zm-.928-.8l-.352-.368-.112-.257-.305-1.264.016-.113.338.352.112.24.32 1.264-.016.144zm-.8-.897l-.305-.4c-.193-.463-.257-.99-.37-1.488l.017-.096.288.384.096.257.305 1.248-.032.096zm-.69-.943l-.255-.416c-.177-.464-.225-.992-.32-1.472v-.096l.24.416c.175.464.24.992.35 1.49l-.015.08zm-.543-1.01l-.19-.447c-.13-.48-.193-.977-.29-1.457v-.08c.257.608.353 1.233.48 1.89v.095zm-2.417-13.11l-.016-.112.145.304c.16.48.256.992.368 1.488l.016.112-.16-.304c-.16-.497-.24-1.01-.353-1.49zm.385.688l-.016-.128.208.272c.208.464.288 1.008.416 1.504v.128l-.224-.288c-.192-.464-.272-.992-.384-1.49zm.496.625v-.128l.256.24.096.224.352 1.297v.144l-.272-.256c-.224-.48-.304-1.024-.432-1.52zm3.282 1.6l.016-.176.464.064.16.21.48 1.36-.032.175-.48-.08-.16-.208-.448-1.344zm1.136.145l.032-.192.513.016.176.19.512 1.377-.032.193-.528-.032-.16-.193-.513-1.36zm1.25.016l.03-.19.56-.033.194.192.528 1.39-.032.21-.577.032-.176-.193-.53-1.41zm1.344-.095l.032-.21.608-.08.192.178.56 1.392-.047.208-.624.08-.192-.192-.528-1.375zm1.473-.225l.047-.224.656-.144.208.176.593 1.41-.048.223-.672.13-.208-.177-.576-1.393zm1.55-.352l.05-.24.704-.192.224.16.608 1.425-.048.24-.704.177-.208-.16-.625-1.41zm1.666-.464l.048-.24.737-.24.225.16.624 1.425-.05.255-.75.24-.225-.16-.61-1.44zm1.745-.592l.05-.256.768-.29.24.145.64 1.442-.064.256-.784.273-.24-.16-.61-1.408zm1.842-.673l.064-.257.8-.32.24.144.657 1.44-.064.273-.817.32-.24-.144-.64-1.457zm7.973-3.57l.064-.29.895-.43.273.127.704 1.457-.064.288-.897.432-.27-.128-.705-1.457zm-.384 17.21c-4.466 1.472-8.884 2.528-13.607 2.048-1.297-3.586-2.593-7.172-3.89-10.774 4.963.16 9.605-1.6 14.12-3.474 1.777 3.826 3.554 7.652 5.33 11.462l-1.952.737zm6.804-20.59l.93-.43.27.127.705 1.457-.08.288-.93.433-.27-.13-.706-1.47.08-.274zm2.178-1.007l.928-.416.272.128.705 1.457-.08.288-.93.416-.27-.128-.705-1.457.08-.287zm2.16-.977l.93-.4.27.128.69 1.457-.08.273-.913.4-.273-.128-.688-1.456.063-.274zm2.162-.912l.912-.368.273.144.687 1.457-.08.272-.913.367-.272-.128-.688-1.458.08-.288zm2.145-.85l.912-.32.256.145.672 1.456-.08.272-.896.336-.256-.144-.673-1.456.064-.29zm2.112-.735l.88-.29.257.16.655 1.442-.064.256-.88.288-.255-.144-.657-1.44.064-.273zm2.05-.657l.864-.24.256.16.64 1.44-.064.24-.848.24-.256-.16-.64-1.44.047-.24zm2.017-.53l.83-.19.24.175.61 1.425-.064.24-.833.192-.24-.16-.624-1.425.08-.256zm1.952-.415l.816-.144.24.176.593 1.41-.063.223-.8.144-.24-.176-.61-1.424.065-.208zm1.873-.272l.784-.08.223.192.577 1.41-.064.207-.77.08-.223-.176-.592-1.426.065-.208zm1.793-.144l.736-.016.208.192.545 1.393-.064.193-.72.032-.225-.192-.528-1.41.048-.19zM69.75.916l.705.032.208.208.512 1.377-.048.192-.688-.032-.21-.192-.527-1.376.048-.208zm1.634.112l.656.096.192.208.496 1.36-.048.177-.64-.08-.192-.21-.512-1.376.048-.176zm1.52.256l.61.144.175.224.463 1.345-.048.16-.592-.144-.176-.208-.48-1.36.047-.16zm1.41.368l.56.192.16.224.432 1.33-.032.143-.544-.19-.177-.225-.448-1.345.048-.128zm1.296.513l.512.24.144.24.4 1.313-.032.144-.496-.24-.16-.225-.416-1.328.048-.145zm1.185.608l.464.288.143.24.368 1.298-.03.128-.45-.288-.143-.24-.384-1.313.032-.112zm1.056.704l.417.336.128.24.337 1.28-.016.113-.4-.32-.13-.24-.35-1.297.015-.113zm.946.8l.368.37.112.255.304 1.265-.016.112-.336-.353-.112-.24-.32-1.265v-.144zm.8.897l.304.4c.192.465.256.993.37 1.49l-.018.095-.288-.385-.096-.256-.304-1.25.032-.096zm.69.945l.255.415c.177.464.225.993.32 1.473v.096l-.24-.416c-.175-.465-.24-.993-.35-1.49l.015-.08zm.543 1.007l.19.45c.13.48.193.975.29 1.455v.08c-.257-.608-.353-1.232-.48-1.89v-.095zm2.432 13.24l-.144-.305c-.16-.48-.256-.992-.368-1.488l-.016-.128.16.304c.144.432.224.88.32 1.328.016.113.032.193.048.29zm-.4-.817l.016.128-.208-.272c-.208-.464-.288-1.008-.416-1.505v-.127l.224.288c.16.402.24.85.336 1.266.016.08.032.16.048.224zm-.496-.624v.128l-.256-.24-.097-.224-.352-1.297v-.144l.273.255c.225.496.29 1.025.433 1.52zm-3.282-1.6l-.016.175-.464-.063-.16-.208-.48-1.362.03-.176.482.08.16.208.448 1.345zm-1.137-.145l-.032.193-.512-.016-.176-.192-.512-1.377.032-.192.528.032.16.208.512 1.345zm-1.248-.015l-.033.192-.56.032-.193-.193-.528-1.377.032-.208.576-.032.176.192.53 1.393zm-1.362.096l-.032.21-.61.08-.19-.177-.56-1.393.047-.208.608-.08.193.192.545 1.377zm-1.457.225l-.047.224-.656.143-.21-.176-.59-1.41.047-.223.673-.128.208.176.576 1.393zm-1.568.352l-.048.24-.704.192-.224-.16-.61-1.425.05-.24.704-.177.208.16.624 1.41zm-1.65.464l-.047.242-.736.24-.225-.16-.625-1.425.048-.24.753-.24.225.16.608 1.424zm-1.76.594l-.048.256-.768.288-.24-.144-.64-1.44.063-.257.784-.272.24.16.608 1.41zm-1.825.672l-.064.256-.8.32-.24-.144-.657-1.44.064-.273.817-.32.24.144.64 1.456zm-7.988 3.57l-.065.288-.897.433-.272-.128-.704-1.458.064-.288.896-.433.272.13.705 1.456zm7.78-1.585l.127-.08.48.113.048.128-.256.754-.13.08-.48-.112-.047-.128.256-.753zm1.12.225l.128-.096.48.08.048.127-.256.77-.128.095-.48-.08-.048-.128.256-.77zm1.12.16l.128-.096.48.03.05.114-.24.784-.13.096-.48-.048-.048-.112.24-.768zm1.12.08l.13-.112h.463l.048.113-.223.8-.128.112-.48-.016-.065-.112.256-.784zm1.09 0l.112-.112.464-.032.048.114-.208.816-.112.128-.465.016-.065-.112.225-.816zm1.088-.096l.112-.13.448-.063.048.096-.192.833-.112.128-.464.064-.048-.112.208-.817zm1.04-.193l.113-.144.433-.112.048.097-.175.85-.112.143-.448.096-.064-.096.21-.833zm1.025-.272l.112-.144.417-.143.048.096-.16.865-.097.144-.432.144-.063-.096.176-.865zm.977-.352l.096-.16.4-.192.048.097-.144.88-.096.16-.416.177-.048-.096.16-.865zm.944-.448l.096-.16.385-.224.048.08-.128.913-.096.176-.402.207-.048-.096.144-.895zm.88-.545l.08-.176.353-.256.048.08-.112.93-.08.175-.368.24-.048-.08.128-.913zm.833-.608l.08-.192.337-.288.048.08-.096.944-.08.193-.337.287-.05-.08.097-.945zm5.555 3.698l-.064.352-.032-.096c-.064-.464-.16-.928-.16-1.392l.048-.37.032.097c.064.466.16.93.176 1.41zm-.176.833l-.112.352-.048-.096c-.048-.45-.16-.914-.128-1.362l.096-.368.032.096c.08.448.176.912.16 1.377zm-.288.832l-.16.352-.048-.096-.096-1.12.016-.223.144-.37.048.097.112 1.12-.016.24zm-.4.833l-.208.352-.048-.096-.064-1.09.032-.223.192-.35.048.095.08 1.104-.032.208zm-.512.8l-.24.336-.05-.096-.047-1.072.03-.21.226-.335.048.08.064 1.09-.032.208zm-.593.768l-.288.32-.064-.095-.015-1.04.048-.208.272-.32.048.08.032 1.056-.032.208zm-.704.72l-.32.29-.065-.097.016-1.026.065-.208.304-.304.063.08v1.04l-.064.225zm-.77.673l-.352.27-.064-.095.032-1.008.064-.192.336-.288.065.096-.015 1.008-.065.21zm-.864.624l-.384.24-.064-.096.064-.977.08-.19.368-.257.064.096-.048.99-.08.194zm-.93.56l-.415.208-.063-.096.08-.96.096-.177.4-.225.065.096-.064.978-.097.176zm-.99.48l-.433.176-.064-.096.095-.944.096-.16.433-.193.064.097-.096.944-.095.176zm-1.042.416l-.464.144-.064-.096.128-.912.096-.16.448-.16.064.096-.112.928-.096.16zm-1.088.32l-.48.113-.065-.112.146-.896.112-.144.464-.128.064.096-.128.912-.112.16zm-1.137.257l-.497.08-.064-.112.16-.88.11-.145.48-.096.065.112-.144.88-.11.16zm-1.17.176l-.512.048-.064-.11.176-.866.112-.128.497-.064.063.112-.16.865-.113.143zm-1.2.08l-.512.016-.065-.113.193-.833.128-.128.512-.016.064.112-.176.85-.144.11zm-1.217.016l-.528-.017-.064-.128.21-.817.127-.112.512.016.063.112-.192.833-.127.112zm-1.25-.08l-.527-.05-.064-.127.224-.8.128-.097.53.048.063.128-.208.817-.146.08zm-1.247-.16l-.53-.097-.063-.128.24-.785.13-.096.527.08.064.128-.224.8-.144.097zm-1.25-.225l-.527-.128-.065-.13.256-.767.13-.08.527.112.064.128-.24.785-.143.08zm-1.264-.305l-.528-.144-.064-.128.256-.752.128-.08.53.144.063.128-.257.768-.128.064zm-1.248-.368l-.53-.176-.063-.144.273-.736.145-.064.528.176.064.128-.256.752-.16.064zm-1.25-.448l-.527-.208-.064-.144.272-.72.144-.065.527.192.064.144-.27.736-.145.064zm-1.232-.496l-.528-.224-.064-.144.288-.705.144-.064.528.225.065.144-.29.72-.143.048zm-1.232-.56l-.513-.257-.048-.143.287-.704.145-.048.512.24.048.144-.288.703-.144.064zm-1.217-.61l-.512-.27-.047-.145.304-.69.144-.047.513.273.048.143-.303.688-.144.05zm-1.217-.655l-.512-.288-.048-.145.304-.672.144-.048.512.288.05.144-.306.69-.144.03zm-1.184-.705l-.497-.304-.048-.16.32-.672.145-.032.496.304.048.144-.304.672-.16.048zm15.064-3.522c3.122-.432 5.667-1.65 7.78-4.002-.112 2.61-.24 5.235-.352 7.844-2.753 1.89-5.73 2.626-9.06 2.642.543-2.177 1.088-4.338 1.632-6.484zM33.476 12.41l-.13.08-.48-.112-.048-.128.256-.752.128-.08.48.112.05.128-.257.752zm-1.122-.24l-.128.096-.48-.08-.048-.112.256-.768.128-.096.48.08.048.128-.256.752zm-1.12-.144l-.13.096-.48-.032-.047-.112.24-.784.128-.097.48.05.048.11-.24.77zm-1.12-.08l-.13.112h-.464l-.048-.112.224-.8.13-.113.48.016.063.112-.257.784zm-1.09 0l-.112.112-.464.032-.048-.112.208-.816.112-.13.464-.015.064.113-.224.816zm-1.09.096l-.11.128-.45.064-.047-.096.192-.832.11-.128.466-.064.064.112-.225.816zm-1.04.192l-.11.144-.433.112-.047-.096.176-.848.11-.144.45-.096.063.096-.208.832zm-1.024.272l-.112.144-.416.144-.048-.096.16-.864.096-.144.432-.144.064.096-.176.864zm-.976.352l-.096.16-.4.193-.048-.095.144-.88.096-.16.416-.177.048.096-.16.864zm-.945.45l-.097.16-.384.223-.05-.08.13-.912.095-.176.4-.208.048.096-.144.897zm-.88.543l-.08.177-.353.256-.048-.08.11-.928.08-.176.37-.242.047.08-.128.913zm-.834.61l-.08.19-.336.29-.048-.08.096-.945.08-.192.336-.288.048.08-.096.944zm-5.555-3.7l.065-.35.032.095c.064.464.16.93.16 1.393l-.048.368-.033-.096c-.064-.464-.176-.944-.176-1.41zm.177-.83l.112-.353.047.096c.048.448.16.912.13 1.36l-.098.37-.033-.097c-.08-.45-.176-.93-.16-1.377zm.29-.834l.16-.352.047.096.096 1.12-.016.225-.144.368-.048-.096-.113-1.12.016-.24zm.4-.832l.207-.352.048.096.064 1.088-.032.225-.192.353-.048-.096-.08-1.105.032-.208zm.51-.8l.24-.337.05.096.047 1.073-.032.208-.224.336-.048-.08-.064-1.088.032-.21zm.593-.77l.29-.32.063.097.016 1.042-.05.208-.272.32-.048-.08-.032-1.057.032-.208zm.69-.72l.32-.288.063.097-.016 1.024-.064.208-.304.304-.065-.097v-1.04l.064-.208zm.783-.688l.352-.272.064.096-.033 1.01-.064.19-.336.29-.064-.097.016-1.01.063-.207zm.865-.624l.384-.24.064.096-.064.976-.08.192-.368.257-.064-.096.048-.993.08-.192zm.928-.544l.416-.208.064.096-.08.96-.08.176-.4.224-.064-.096.064-.976.08-.176zm.993-.48l.43-.177.065.097-.096.945-.097.16-.432.192-.063-.096.096-.945.096-.176zm1.04-.417l.464-.143.064.096-.128.913-.097.16-.448.16-.064-.096.113-.93.096-.16zm1.088-.335l.48-.112.064.112-.144.896-.112.146-.464.128-.064-.096.128-.913.112-.16zm1.137-.24l.496-.08.065.112-.16.88-.112.144-.48.097-.065-.112.144-.896.113-.145zm1.168-.176l.512-.05.064.113-.177.848-.112.13-.495.063-.064-.112.16-.863.113-.128zm1.2-.08l.513-.017.064.112-.192.832-.128.128-.512.016-.064-.11.176-.85.144-.11zm1.218-.017l.53.016.063.127-.208.816-.128.112-.513-.016-.064-.113.192-.832.13-.112zm1.25.08l.527.064.065.128-.225.8-.128.096-.53-.047-.063-.128.208-.816.144-.097zm1.248.16l.528.096.064.127-.24.784-.128.097-.528-.08-.064-.128.224-.8.144-.097zm1.25.224l.527.128.064.128-.24.768-.13.082-.528-.113-.064-.13.24-.783.13-.08zm1.263.304l.53.145.064.128-.257.753-.128.08-.53-.144-.063-.128.256-.77.128-.063zm1.25.37l.528.175.064.144-.272.736-.144.064-.528-.176-.064-.144.256-.753.16-.048zm1.25.448l.527.208.064.144-.27.72-.145.064-.53-.192-.063-.144.273-.736.144-.064zm1.23.496l.53.224.064.144-.288.704-.145.064-.527-.224-.064-.144.287-.72.144-.048zm1.234.56l.528.256.048.144-.288.705-.144.047-.512-.24-.048-.144.288-.705.128-.064zm1.217.608l.513.273.048.144-.303.687-.144.048-.513-.272-.048-.144.305-.69.144-.048zm1.217.657l.513.287.048.16-.304.672-.145.047-.513-.288-.048-.145.303-.688.144-.048zm1.185.703l.496.304.048.16-.32.673-.144.032-.496-.304-.032-.16.304-.673.144-.032zm-15.064 3.522c-3.122.432-5.667 1.65-7.78 4.002.11-2.61.24-5.235.352-7.844 2.753-1.89 5.73-2.625 9.06-2.64-.544 2.176-1.088 4.32-1.632 6.482zm15.768-1.33c.24.146.465.306.69.45l.495 1.04-.063.288-.912.45-.273-.13-.704-1.472.064-.287.704-.337zM19.74 18.222c.43.242.88.45 1.36.61.224.08.464.144.704.208h.032l.048.016c.08.016.144.032.224.048h.032l.048.016h.016l.064.016h.032l.048.016.048.016h.016l.048.016.048.016.05.016h.03l.05.016c1.263 3.57 2.512 7.14 3.777 10.71-1.617-.4-3.298-.897-4.61-1.97-1.394-1.136-2.338-2.4-3.06-4.05l-.207-1.2-.08-.496-.128-.753-.08-.495-.96-5.73c.272.815.608 1.36 1.136 2.016l.048.05.048.03c.032.033.064.05.096.08.064.05.128.113.192.16.177.145.353.273.545.4l.144.097.24.144zm29.423-7.907c2.05-.96 4.1-1.89 6.196-2.77.367-.16.75-.304 1.12-.464 1.792 3.825 3.585 7.668 5.378 11.494-.144.064-.304.144-.448.208h-.016l-.048.016h-.032l-.064.032h-.016l-.08.032h-.032l-.016.016-.08.032-.032.016-.048.016-.032.016-.032.016-.032.016-.032.016c-.32.144-.64.304-.96.448h-.081l-.016.016-.03.016h-.049l-.015.016-.016.016H59.505l-.048.016h-.047l-.033.016h-.016c-4.818 2.257-9.572 4.66-14.487 6.724-.368.16-.753.304-1.12.464-1.746-3.698-3.54-7.524-5.332-11.366.16-.064.305-.144.466-.208l.368-.176h.016l.176-.08h.064l.016-.016h.016l.08-.032c.304-.144.608-.273.896-.417h.032l.033-.016h.016l.03-.016h.017c.16-.08.32-.143.48-.223 2.033-.944 4.05-1.92 6.067-2.897l.544-.257c.273-.128.545-.256.8-.384.177-.13.4-.24.625-.337zm34.355 11.19c.064.16.112.32.176.497l.048.368-.016.352-.032-.096c-.064-.384-.128-.753-.176-1.12zm-3.12-2.85c.35.113.67.24 1.023.45.866.495 1.49 1.136 1.89 1.936-.416 3.105-2.21 4.834-3.41 5.922.08-2.64.176-5.283.256-7.94.08-.128.16-.24.24-.368zm-.85-.19c.064.015.128.015.192.03.048.017.112.017.16.033l-.064.208-.288.336-.048-.08.048-.528zm-.416-.065c.048 0 .096.016.144.016l-.064.912-.064.192-.32.32-.048-.08.08-.96.064-.192.208-.208zm-12.12 2.56c3.62-1.504 7.685-2.993 11.608-2.624-2.114 1.905-4.515 2.8-7.332 3.04-1.41.13-2.866-.063-4.275-.415zm-1.392.593c.16-.063.337-.143.497-.207l.16-.064.08.015.048.128-.272.737-.128.08-.48-.144-.05-.128.145-.417zm-4.93 2.26c1.136-.546 2.273-1.09 3.426-1.602 2.417.848 4.802 1.344 7.396 1.28-.56 2.13-1.137 4.275-1.697 6.404-3.714-.352-7.076-1.537-10.374-3.234.4-.944.833-1.905 1.25-2.85zm-3.378 1.63c.816-.4 1.633-.8 2.45-1.183l-.93 2.097c-.512-.304-1.008-.608-1.52-.913zm-40.47-12.79c-.05-.112-.097-.224-.145-.352-.032-.24-.064-.48-.096-.704l.017-.352.032.096c.08.448.16.88.19 1.312zm3.105 2.658c-.368-.112-.72-.256-1.073-.464-.832-.48-1.424-1.09-1.84-1.84.384-3.17 2.21-4.916 3.425-6.02-.08 2.64-.177 5.282-.257 7.94-.096.144-.176.272-.256.384zm.85.192c-.082-.016-.178-.032-.258-.048-.033 0-.065-.016-.097-.016v-.016l.064-.208.29-.336.047.08-.048.544zm.415.064c-.048 0-.096-.016-.16-.016l.064-.913.064-.192.32-.32.048.08-.08.96-.064.193-.192.208zm12.054-2.577c-3.602 1.504-7.636 2.977-11.542 2.64 2.097-1.904 4.5-2.8 7.316-3.04 1.393-.13 2.834.047 4.226.4zm1.473-.625l-.577.24-.144.064-.033-.016-.048-.128.27-.736.13-.08.48.144.047.128-.128.384zm4.946-2.273c-1.17.56-2.337 1.104-3.506 1.632-2.4-.85-4.77-1.313-7.332-1.265.56-2.13 1.137-4.274 1.697-6.403 3.714.352 7.076 1.536 10.374 3.233l-1.234 2.802zm3.298-1.602c-.8.384-1.585.768-2.385 1.153l.91-2.032c.497.288.994.592 1.474.88zm2.48-1.2l-.383.19c-.64-.415-1.296-.815-1.968-1.2-4.803-2.785-10.038-4.834-15.69-4.37-4.417.37-9.06 2.85-10.565 7.124-.384 1.09-.48 2.13-.32 2.978.673 3.89 1.28 7.812 2.017 11.67.208 1.057.385 2.114.72 3.138.4 1.217 1.25 2.434 2.146 3.33 1.97 2 4.546 3.17 7.316 3.554 5.523.784 11.27-.72 16.377-2.753 3.298-1.314 6.516-2.803 9.717-4.324l.417-.192c.656.416 1.328.832 2 1.217 4.82 2.786 10.038 4.82 15.705 4.355 4.42-.368 9.06-2.85 10.566-7.124.48-1.344.417-2.64.256-3.585-.192-1.2-.448-2.4-.64-3.602-.464-2.673-.912-5.347-1.425-8.004-.177-.882-.385-1.762-.657-2.61-.4-1.217-1.25-2.434-2.145-3.33-2-1.97-4.58-3.138-7.348-3.54-5.523-.783-11.27.722-16.377 2.755-3.298 1.33-6.516 2.802-9.718 4.322z" class="st0" clip-rule="evenodd" fill-rule="evenodd"/><path id="path7" d="M2.738 43.66c1.056 0 1.793.112 2.48.72.753.672.96 1.585.96 2.257 0 .368-.063 1.377-.767 2.097-.527.53-1.296.833-2.384.833H1.84v3.474H0v-9.38h2.738zm-.913 4.322h.752c.353 0 .8 0 1.2-.288.337-.272.513-.69.513-1.09 0-.51-.256-.863-.528-1.07-.384-.274-.864-.29-1.297-.29h-.64v2.738z" class="st1"/><path id="path9" d="M16.185 51.072H12.39l-.832 1.97H9.573l4.067-9.575h1.376l3.955 9.574H17l-.815-1.968zm-.544-1.49l-1.328-3.377-1.345 3.378h2.674z" class="st1"/><path id="path11" d="M25.566 43.66v7.796h2.898v1.57h-4.74v-9.382h1.842z" class="st1"/><path id="path13" d="M35.38 43.66v7.796h2.897v1.57H33.54v-9.382h1.84z" class="st1"/><path id="path15" d="M48.763 51.072h-3.778l-.833 1.97h-1.985l4.067-9.575h1.376l3.955 9.574h-1.97l-.832-1.968zm-.528-1.49l-1.33-3.377-1.344 3.378h2.675z" class="st1"/><path id="path17" d="M58.785 43.66c1.312 0 2.45.144 3.49.912 1.136.865 1.81 2.225 1.81 3.778s-.642 2.914-1.89 3.778c-1.105.77-2.13.897-3.442.897h-2.418v-9.38h2.45zm-.625 7.796h.56c.465 0 1.473-.032 2.29-.624.752-.53 1.168-1.49 1.168-2.482 0-.976-.416-1.937-1.152-2.497-.753-.56-1.697-.625-2.305-.625h-.56v6.228z" class="st1"/><path id="path19" d="M71.256 43.66v9.38H69.43v-9.38h1.826z" class="st1"/><path id="path21" d="M78.892 43.66v5.89c0 .72.24 1.153.448 1.394.272.32.752.64 1.49.64.735 0 1.23-.32 1.488-.64.208-.24.448-.673.448-1.393v-5.89h1.825v5.73c0 .88-.143 1.778-.703 2.498-.673.88-1.858 1.345-3.074 1.345-1.217 0-2.402-.464-3.074-1.345-.56-.72-.705-1.617-.705-2.497v-5.73h1.857z" class="st1"/><path id="path23" d="M91.683 43.5h1.265l2.545 6.13 2.657-6.13h1.265L101 53.04h-1.857l-.85-5.778-2.576 5.907h-.512L92.74 47.26l-.96 5.78H89.92l1.76-9.543z" class="st1"/><path id="path25" d="M22.925 71.803c-.56.288-1.313.544-2.322.544-1.648 0-2.64-.56-3.44-1.312-1.09-1.04-1.506-2.21-1.506-3.586 0-1.698.704-2.93 1.505-3.667.944-.88 2.113-1.233 3.44-1.233.658 0 1.458.112 2.307.576v2.13c-.866-.977-1.922-1.057-2.275-1.057-1.89 0-3.105 1.552-3.105 3.28 0 2.082 1.6 3.203 3.185 3.203.88 0 1.65-.385 2.194-1.025v2.145z" class="st1"/><path id="path27" d="M30.113 62.758v9.38h-1.825v-9.38h1.825z" class="st1"/><path id="path29" d="M35.908 72.14v-9.59h1.265l5.715 6.516v-6.308h1.825v9.557h-1.265l-5.7-6.515v6.34h-1.84z" class="st1"/><path id="path31" d="M55.743 64.343h-3.378v2.097H55.6v1.57h-3.235v2.56h3.378v1.57H50.54v-9.382h5.203v1.585z" class="st1"/><path id="path33" d="M62.45 62.598h1.265l2.546 6.13 2.658-6.13h1.265l1.57 9.54h-1.858l-.85-5.778-2.576 5.907h-.513L63.49 66.36l-.96 5.78h-1.856l1.777-9.542z" class="st1"/><path id="path35" d="M82.654 70.17H78.86l-.833 1.97h-1.985l4.066-9.574h1.377l3.954 9.573h-1.97l-.816-1.97zm-.544-1.49l-1.33-3.376-1.344 3.377h2.674z" class="st1"/></g></svg>
