<svg xmlns="http://www.w3.org/2000/svg" id="Layer_1" viewBox="0 0 130.99999 93.836801"><style id="style3">.st0{fill:url(#SVGID_1_);} .st1{fill:url(#SVGID_2_);} .st2{fill:url(#SVGID_3_);} .st3{fill:url(#SVGID_4_);} .st4{fill:url(#SVGID_5_);} .st5{fill:url(#SVGID_6_);} .st6{fill:url(#SVGID_7_);} .st7{fill:url(#SVGID_8_);} .st8{fill:url(#SVGID_9_);} .st9{fill:url(#SVGID_10_);} .st10{fill:url(#SVGID_11_);} .st11{fill:url(#SVGID_12_);} .st12{fill:url(#SVGID_13_);} .st13{fill:url(#SVGID_14_);} .st14{fill:url(#SVGID_15_);} .st15{fill:url(#SVGID_16_);} .st16{fill:url(#SVGID_17_);} .st17{fill:url(#SVGID_18_);} .st18{fill:url(#SVGID_19_);} .st19{fill:url(#SVGID_20_);} .st20{fill:url(#SVGID_21_);} .st21{fill:url(#SVGID_22_);} .st22{fill:url(#SVGID_23_);} .st23{fill:url(#SVGID_24_);} .st24{fill:url(#SVGID_25_);} .st25{fill:url(#SVGID_26_);} .st26{fill:url(#SVGID_27_);} .st27{fill:url(#SVGID_28_);} .st28{fill:url(#SVGID_29_);} .st29{fill:url(#SVGID_30_);} .st30{fill:url(#SVGID_31_);} .st31{fill:url(#SVGID_32_);} .st32{fill-rule:evenodd;clip-rule:evenodd;fill:#7E553D;} .st33{fill-rule:evenodd;clip-rule:evenodd;fill:#8D6543;}</style><g id="g5" transform="matrix(.20764 0 0 .20764 0 .004)"><radialGradient id="SVGID_1_" cx="288.948" cy="223.442" r="378.636" gradientUnits="userSpaceOnUse"><stop offset="0" id="stop8" stop-color="#DFBD90"/><stop offset="1" id="stop10" stop-color="#8D6543"/></radialGradient><path class="st0" d="M521.5 155.6c3-8.4 2.6-16.5 1.6-22.4-1.2-7.5-2.8-15-4-22.5-2.9-16.7-5.7-33.4-8.9-50-1.1-5.5-2.4-11-4.1-16.3-2.5-7.6-7.8-15.2-13.4-20.8C480.4 11.1 464.3 3.8 447 1.3c-34.5-4.9-70.4 4.5-102.3 17.2-20.6 8.3-40.7 17.5-60.7 27l-2.4 1.2c-4-2.6-8.1-5.1-12.3-7.5-30-17.4-62.7-30.2-98-27.3-27.6 2.3-56.6 17.8-66 44.5-2.4 6.8-3 13.3-2 18.6 4.2 24.3 8 48.8 12.6 72.9 1.3 6.6 2.4 13.2 4.5 19.6 2.5 7.6 7.8 15.2 13.4 20.8 12.3 12.5 28.4 19.8 45.7 22.2 34.5 4.9 70.4-4.5 102.3-17.2 20.6-8.2 40.7-17.5 60.7-27l2.6-1.2c4.1 2.6 8.3 5.2 12.5 7.6 30.1 17.4 62.7 30.1 98.1 27.2 27.4-2 56.4-17.6 65.8-44.3zm-11.2 14.7l-1.8 2-.4-.6-.1-6.5.3-1.3 1.7-2 .3.5.2 6.6-.2 1.3zm3.7-4.8l-1.5 2.1-.3-.6-.3-6.7.2-1.3 1.4-2.1.3.5.4 6.8-.2 1.3zm3.2-5l-1.3 2.2-.3-.6-.4-6.8.2-1.4 1.2-2.2.3.6.5 6.9-.2 1.3zm2.5-5.2l-1 2.2-.3-.6-.6-7 .1-1.4.9-2.3.3.6.7 7-.1 1.5zm3-17.9c.1.8.2 1.5.3 2.3l-.1 2.2-.2-.6c-.4-2.3-.8-4.6-1.1-7 .5 1 .8 2 1.1 3.1zm-1.4-1.9l.2.6c.4 2.9 1.1 5.8 1.2 8.8l-.4 2.2-.2-.6c-.4-2.9-1-5.8-1-8.7l.2-2.3zm-.7 6c.4 2.8 1 5.8.9 8.6l-.7 2.2-.3-.6c-.3-2.8-1-5.7-.8-8.5l.6-2.3.3.6zm-21.5 26.9c.5-16.5 1.1-33 1.6-49.6.5-.8 1-1.6 1.5-2.3 2.2.7 4.2 1.5 6.4 2.8 5.4 3.1 9.3 7.1 11.8 12.1-2.6 19.4-13.8 30.2-21.3 37zm-53.8-34.9c-8.8.7-17.9-.4-26.8-2.6 22.6-9.4 48-18.7 72.5-16.4-13 11.9-28 17.5-45.7 19zm45.5-14.2l-.6 5.9-.5 1.2-2.1 1.8-.3-.5.6-5.9.5-1.2 2.1-1.8.3.5zm-5 4.1l-.7 5.8-.5 1.1-2.3 1.5-.3-.5.8-5.7.5-1.1 2.2-1.6.3.5zm-5.3 3.7l-.8 5.7-.6 1.1-2.5 1.3-.3-.6.9-5.6.6-1 2.4-1.4.3.5zm-5.7 3.1l-.9 5.5-.6 1-2.6 1.1-.3-.6 1-5.5.6-1 2.5-1.2.3.7zm-6 2.6l-1 5.4-.6.9-2.7.9-.4-.6 1.1-5.3.7-.9 2.6-.9.3.5zm-6.2 2l-1.1 5.3-.7.9-2.8.6-.4-.6 1.2-5.2.7-.9 2.7-.7.4.6zm-6.5 1.5l-1.2 5.2-.7.8-2.9.4-.3-.7 1.3-5.1.7-.8 2.8-.4.3.6zm-6.6.9l-1.3 5.1-.7.8-2.9.1-.4-.7 1.4-5 .7-.7 2.9-.2.3.6zm-6.8.3l-1.4 5-.8.7-3-.1-.4-.7 1.5-4.9.8-.7h2.9l.4.7zm-6.9-.1l-1.5 4.9-.8.6-3-.3-.3-.7 1.6-4.8.8-.6 3 .2.2.7zm-7-.7l-1.6 4.8-.8.6-3-.5-.3-.8 1.6-4.7.8-.6 3 .5.3.7zm-15.2-10.8l-1.5-.9-4.1-9 .4-1.7 5.1-2 1.5.9 4.1 9-.4 1.6-5.1 2.1zm1.2 7.9l-1.7 4.6-.8.5-3-.9-.3-.8 1-2.6c1-.4 2.1-.9 3.1-1.3l1-.4.5.1.2.8zm-22.1-20.6c-11.1-23.9-22.2-47.8-33.3-71.6 19.7-7.3 39.8-13.5 60.7-16.3 11.9-1.6 24-2.1 36.5-1 8.1 22.4 16.2 44.8 24.3 67.3-31-1.1-60 9.9-88.2 21.6zm14.4 13.9l-.4 1.7-5.2 2.3-1.6-.8-4.2-9.1.4-1.7 5.3-2.2 1.6.9 4.1 8.9zm-33.8 24.4l-5.8 13.1c-3.2-1.8-6.3-3.7-9.5-5.6 5.1-2.6 10.2-5.1 15.3-7.5zM357 139.1l.4-1.8 5.6-2.7 1.7.8 4.4 9.1-.4 1.8-5.6 2.7-1.7-.8-4.4-9.1zm13.2-6.3l.4-1.8 5.5-2.6 1.6.8 4.3 9.1-.4 1.8-5.5 2.6-1.7-.8-4.2-9.1zm11.8-14.9l-.1.1h-.1l-.1.1-.5.2-.2.1-.3.1-.2.1-.2.1-.2.1-.2.1c-2 .9-4 1.9-6 2.8h-.5l-.1.1-.2.1H372.8l-.1.1-.1.1H371.7l-.3.1H371.1l-.2.1h-.1c-30.1 14.1-59.8 29.1-90.5 42-2.3 1-4.7 1.9-7 2.9C262.4 143.9 251.2 120 240 96c1-.4 1.9-.9 2.9-1.3l2.3-1.1h.1l1.1-.5h.4l.1-.1h.1l.5-.2c1.9-.9 3.8-1.7 5.6-2.6h.2l.2-.1h.1l.2-.1h.1c1-.5 2-.9 3-1.4 12.7-5.9 25.3-12 37.9-18.1l3.4-1.6c1.7-.8 3.4-1.6 5-2.4 1.4-.7 2.7-1.3 4.1-1.9 12.8-6 25.6-11.8 38.7-17.3 2.3-1 4.7-1.9 7-2.9 11.2 23.9 22.4 47.9 33.6 71.8-.9.4-1.9.9-2.8 1.3h-.1l-.3.1h-.2l-.4.2h-.1l-.7.1zM111.9 93.8V93l1.6 1.5.6 1.4 2.2 8.1v.9l-1.7-1.6c-1.4-3-1.9-6.4-2.7-9.5zm.7 7.2l-1.4-1.8c-1.2-3-1.7-6.2-2.4-9.3l-.1-.8 1.3 1.7c1.3 2.9 1.8 6.3 2.6 9.4v.8zm3.3-3.8v-.9l1.9 1.3.7 1.4 2.4 8.2-.1.9-2-1.3-.7-1.4-2.2-8.2zm4.7 2.8l.1-1 2.3 1 .8 1.3 2.6 8.3-.1 1-2.4-1.1-.8-1.4-2.5-8.1zm5.5 2.3l.1-1 2.6.7.9 1.3 2.8 8.4-.1 1-2.7-.8-.9-1.3-2.7-8.3zm1.6-5.9l.4-1.3 1.8-2.1.3.5-.2 3.4c-.5-.1-1.1-.2-1.6-.3-.3-.1-.5-.2-.7-.2zm4.7 7.4l.1-1.1 2.9.4 1 1.3 3 8.5-.2 1.1-3-.5-1-1.3-2.8-8.4zm-.9-6.8l.4-5.7.4-1.2 2-2 .3.5-.5 6-.4 1.2-1.2 1.3c-.3 0-.7 0-1-.1zm4.2.5c13.1-11.9 28.1-17.5 45.7-19 8.7-.7 17.7.4 26.4 2.5-22.4 9.4-47.6 18.7-72.1 16.5zm.3-4.7l.6-5.9.5-1.2 2.1-1.8.3.5-.6 5.9-.5 1.2-2.1 1.8-.3-.5zm5-4.1l.7-5.8.5-1.1 2.3-1.5.3.5-.8 5.7-.5 1.1-2.2 1.6-.3-.5zm5.3-3.7l.8-5.7.6-1.1 2.5-1.3.3.6-.9 5.6-.6 1-2.4 1.4-.3-.5zm5.7-3.1l.9-5.5.6-1 2.6-1.1.3.6-1 5.5-.6 1-2.5 1.2-.3-.7zm6-2.6l1-5.4.6-.9 2.7-.9.4.6-1.1 5.3-.7.9-2.6.9-.3-.5zm6.2-2l1.1-5.3.7-.9 2.8-.6.4.6-1.2 5.2-.7.9-2.7.7-.4-.6zm6.4-1.5l1.2-5.2.7-.8 2.9-.4.4.7-1.3 5.1-.7.8-2.8.4-.4-.6zm6.7-.9l1.3-5.1.7-.8 2.9-.1.4.7-1.4 5-.7.7-2.9.2-.3-.6zm6.8-.4l1.4-5 .8-.7 3 .1.4.7-1.5 4.9-.8.7h-2.9l-.4-.7zm6.9.2l1.5-4.9.8-.6 3 .3.3.7-1.5 4.8-.8.6-3-.2-.3-.7zm7 .7l1.6-4.8.8-.6 3 .5.3.8-1.6 4.7-.8.6-3-.5-.3-.7zm14.7 10.7l1.5.9 4.1 9-.4 1.7-5.1 2-1.5-.9-4.1-9 .4-1.6 5.1-2.1zm-.7-7.8l1.7-4.6.8-.5 3 .9.3.8-.9 2.3-3.6 1.5-.9.4-.2-.1-.2-.7zm-2.9-.8l-.8.5-3-.7-.3-.8 1.6-4.7.8-.5 3 .7.3.8-1.6 4.7zm-2.5 23.1l-.4 1.6-4.9 1.7-1.5-1-4-9 .3-1.6 4.8-1.8 1.5.9 4.2 9.2zm-11.3 4l-.3 1.6-4.7 1.5-1.4-1-3.8-8.9.3-1.5 4.6-1.5 1.4 1 3.9 8.8zm-10.9 3.2l-.3 1.5-4.4 1.1-1.3-1-3.7-8.8.3-1.5 4.4-1.2 1.4 1 3.6 8.9zm-10.2 2.6l-.3 1.4-4.2.8-1.3-1.1-3.6-8.8.3-1.4 4.1-.9 1.3 1.1 3.7 8.9zm-9.7 1.8l-.3 1.3-3.9.5-1.2-1.2-3.4-8.7.2-1.3 3.8-.5 1.2 1.1 3.6 8.8zm-9 1l-.2 1.3-3.6.2-1.1-1.2-3.2-8.6.2-1.2 3.5-.2 1.2 1.2 3.2 8.5zm-15.8-9.7l3.2.1 1.1 1.2 3.2 8.6-.2 1.2-3.3-.2-1-1.2-3.1-8.5.1-1.2zm94-4.7c11.1 23.9 22.2 47.8 33.3 71.6l-12.3 4.5c-27.9 9.2-55.5 15.8-85 12.8-8.1-22.4-16.2-44.8-24.3-67.3 31.1 1.1 60.1-9.9 88.3-21.6zm-14.5-13.9l.4-1.7 5.2-2.3 1.6.9 4.2 9.1-.4 1.7-5.2 2.2-1.6-.9-4.2-9zm12.4-5.4l.4-1.7 5.4-2.4 1.6.8 4.3 9.1-.4 1.8-5.4 2.4-1.6-.8-4.3-9.2zm22-19.2l5.7-12.7c3.1 1.8 6.2 3.6 9.2 5.5-5 2.4-9.9 4.8-14.9 7.2zM269.3 73l-.4 1.8-5.6 2.7-1.7-.8-4.4-9.1.4-1.8 5.6-2.7 1.7.8 4.4 9.1zm-13.1 6.2l-.4 1.8-5.5 2.6-1.6-.8-4.3-9.1.4-1.8 5.5-2.6 1.7.8 4.2 9.1zm127.3 45.9l5.4-2.4 1.6.8 4.3 9.1-.4 1.7-5.4 2.4-1.6-.8-4.3-9.1.4-1.7zm99.3-27.6l1 1.3 3.1 8.5-.2 1.2-3.2-.1-1.1-1.2-3.2-8.6.2-1.2 3.4.1zm-3.7 9.7l-.2 1.2-3.5.2-1.2-1.2-3.3-8.6.2-1.3 3.6-.2 1.1 1.2 3.3 8.7zm-8.5.6l-.2 1.3-3.8.5-1.2-1.1-3.5-8.7.3-1.3 3.8-.5 1.2 1.2 3.4 8.6zm-9.1 1.4l-.3 1.4-4.1.9-1.3-1.1-3.7-8.8.3-1.4 4.2-.8 1.3 1.1 3.6 8.7zm-9.8 2.2l-.3 1.5-4.4 1.2-1.4-1-3.8-8.9.3-1.5 4.4-1.1 1.3 1 3.9 8.8zm-10.3 2.9l-.3 1.5-4.6 1.5-1.4-1-3.9-8.9.3-1.5 4.7-1.5 1.4 1 3.8 8.9zm-11 3.7l-.3 1.6-4.8 1.8-1.5-.9-4-9 .4-1.6 4.9-1.7 1.5 1 3.8 8.8zm-12.7 16.6l.8-.5 3 .7.3.8-1.6 4.7-.8.5-3-.7-.3-.8 1.6-4.7zm73.2-25.8l-1-1.3-3-8.5.2-1.1 3 .5 1 1.3 2.9 8.4-.1 1.1-3-.4zm1.8 8.6l.4-1.2 1.2-1.3c.3 0 .6.1.9.1l-.4 5.7-.4 1.2-2 2-.3-.5.6-6zm1.2-17.1l.1-1 2.7.8.9 1.3 2.7 8.3-.1 1-2.6-.7-.9-1.3-2.8-8.4zm20.6 17.9v.8l-1.6-1.5-.6-1.4-2.2-8.1v-.9l1.7 1.6c1.4 3.1 1.8 6.4 2.7 9.5zm-.7-7.1l1.4 1.8c1 2.5 1.5 5.3 2.1 7.9.1.5.2.9.3 1.4l.1.8-1.3-1.7c-1.3-2.9-1.8-6.3-2.6-9.4v-.8zm-3.3 3.7v.9l-1.9-1.3-.7-1.4-2.4-8.2.1-.9 2 1.3.7 1.4 2.2 8.2zm-4.7-2.8l-.1 1-2.3-1-.8-1.3-2.6-8.3.1-1 3.2 2.4 2.5 8.2zm-8.9 3.3c.4.1.8.1 1.2.2.3.1.7.1 1 .2l-.4 1.3-1.8 2.1-.3-.5.3-3.3zm22.9 10.2c.1.6.2 1.1.3 1.7l-.9-1.9c-1-3-1.6-6.2-2.3-9.3l-.1-.8 1 1.9c.9 2.8 1.4 5.6 2 8.4zm-1.4-8.7c-1.7-5.1-3.8-8.5-7.1-12.6-7.9-7.1-15.8-10.2-26.5-12.2-8-22.4-15.8-44.7-23.7-67 10.1 2.5 20.6 5.6 28.8 12.3 8.7 7.2 14.6 15 19.1 25.3l9.4 54.2zm-13.5-72.3l1.2 2.8c.8 3 1.2 6.1 1.8 9.1v.5c-1.6-3.8-2.2-7.7-3-11.8v-.6zm-3.4-6.3l1.6 2.6c1.1 2.9 1.4 6.2 2 9.2v.6l-1.5-2.6c-1.1-2.9-1.5-6.2-2.2-9.3l.1-.5zm-4.3-5.9l1.9 2.5c1.2 2.9 1.6 6.2 2.3 9.3l-.1.6-1.8-2.4-.6-1.6-1.9-7.8.2-.6zm-5-5.6l2.3 2.3.7 1.6 1.9 7.9-.1.7-2.1-2.2-.7-1.5-2-7.9v-.9zm-5.9-5l2.6 2.1.8 1.5 2.1 8-.1.7-2.5-2-.8-1.5-2.2-8.1.1-.7zm-6.6-4.4l2.9 1.8.9 1.5 2.3 8.1-.2.8-2.8-1.8-.9-1.5-2.4-8.2.2-.7zm-7.4-3.8l3.2 1.5.9 1.5 2.5 8.2-.2.9-3.1-1.5-1-1.4-2.6-8.3.3-.9zm-8.1-3.2l3.5 1.2 1 1.4 2.7 8.3-.2.9-3.4-1.2-1.1-1.4-2.8-8.4.3-.8zM455.4 8l3.8.9 1.1 1.4 2.9 8.4-.3 1-3.7-.9-1.1-1.3-3-8.5.3-1zm-9.5-1.6l4.1.6 1.2 1.3 3.1 8.5-.3 1.1-4-.5-1.2-1.3-3.2-8.6.3-1.1zm-10.2-.7l4.4.2 1.3 1.3 3.2 8.6-.3 1.2-4.3-.2-1.3-1.2-3.3-8.6.3-1.3zm-10.7 0l4.6-.1 1.3 1.2 3.4 8.7-.4 1.2-4.5.2-1.4-1.2-3.3-8.7.3-1.3zm-11.2 1l4.9-.5 1.4 1.2 3.6 8.8-.4 1.3-4.8.5-1.4-1.1-3.7-8.9.4-1.3zm-11.7 1.7l5.1-.9 1.5 1.1 3.7 8.8-.4 1.4-5 .9-1.5-1.1-3.8-8.9.4-1.3zM389.9 11l5.2-1.2 1.5 1 3.8 8.9-.4 1.5-5.2 1.2-1.5-1-3.9-8.9.5-1.5zm-12.6 3.3l5.4-1.5 1.6 1 4 9-.4 1.5-5.3 1.5-1.6-1-4-9 .3-1.5zm-12.8 4.1l5.5-1.8 1.6 1 4.1 9-.4 1.6-5.5 1.8-1.6-.9-4.1-9 .4-1.7zM351.3 23l5.7-2 1.6.9 4.2 9.1-.5 1.7-5.6 2.1-1.6-.9-4.2-9.1.4-1.8zm-13.4 5.3l5.7-2.3 1.7.9 4.3 9.1-.5 1.7-5.7 2.3-1.7-.8-4.3-9.1.5-1.8zM324.4 34l5.8-2.5 1.7.8 4.3 9.1-.5 1.7-5.7 2.5-1.7-.8-4.3-9.1.4-1.7zm-13.5 6.1l5.8-2.6 1.7.8 4.4 9.1-.5 1.8-5.8 2.6-1.7-.8-4.4-9.1.5-1.8zm-13.6 6.3l5.8-2.7 1.7.8 4.4 9.1-.5 1.8-5.8 2.7-1.7-.8-4.4-9.2.5-1.7zm-13.1 6.5l5.3-2.8 1.7.8 4.4 9.2-.5 1.8-5.3 2.8-1.7-.8-4.4-9.2.5-1.8zm-4.7 7.2l3.1 6.5-.4 1.8-5.7 2.8-1.7-.8-4.4-9.2.4-1.8 4.3-2.1c1.6.9 3 1.8 4.4 2.8zM270 43.8l.9-.2 3.1 1.9.3 1-2 4.2-.9.2-3.1-1.9-.3-1 2-4.2zm-7.5-4.3l.9-.3 3.2 1.8.3 1-1.9 4.2-.9.3-3.2-1.8-.3-.9 1.9-4.3zm-7.6-4.1l.9-.3 3.2 1.7.3.9-1.9 4.3-.9.3-3.2-1.7-.3-.9 1.9-4.3zm-7.6-3.8l.9-.3 3.3 1.6.3.9-1.8 4.4-.9.3-3.2-1.5-.3-.9 1.7-4.5zm-7.6-3.4l.9-.4 3.3 1.4.4.9-1.8 4.4-.9.4-3.3-1.4-.4-.9 1.8-4.4zm-7.8-3.1l.9-.4 3.3 1.3.4.9-1.7 4.5-.9.4-3.3-1.2-.4-.9 1.7-4.6zm-7.8-2.7l.9-.5 3.3 1.1.4.9-1.7 4.6-.9.4-3.3-1.1-.4-.9 1.7-4.5zm-7.8-2.3l.9-.5 3.3.9.4.8-1.6 4.7-.8.5-3.3-.9-.4-.8 1.5-4.7zm-7.8-1.8l.8-.6 3.3.8.4.8-1.5 4.8-.8.5-3.3-.7-.4-.8 1.5-4.8zm-7.8-1.4l.8-.6 3.3.6.4.8-1.5 4.9-.8.6-3.3-.5-.4-.8 1.5-5zm-7.8-.9l.8-.7 3.3.4.4.8-1.4 5-.8.6-3.3-.3-.4-.8 1.4-5zm62.7 29.5L247.9 63c-7.3 3.5-14.6 6.9-21.9 10.2-15-5.3-29.8-8.2-45.8-7.9 3.5-13.3 7.1-26.7 10.6-40 23.1 2.2 44.1 9.7 64.8 20.2zm-70.5-30l.8-.7 3.3.1.4.8-1.3 5.1-.8.7-3.2-.1-.4-.7 1.2-5.2zm-7.6.1l.8-.8 3.2-.1.4.7-1.2 5.2-.8.8-3.2.1-.4-.7 1.2-5.2zm-7.4.7l.7-.8 3.2-.3.4.7-1.1 5.3-.7.8-3.1.4-.4-.7 1-5.4zm-7.3 1.1l.7-.9 3.1-.5.4.7-1 5.5-.7.9-3 .6-.4-.7.9-5.6zm-7.1 1.6l.7-1 3-.7.4.7-.9 5.6-.7.9-2.9.8-.4-.6.8-5.7zm-6.8 2.1l.6-1 2.9-.9.4.6-.8 5.7-.6 1-2.8 1-.4-.6.7-5.8zm-6.4 2.6l.6-1.1 2.7-1.1.4.6-.6 5.9-.6 1.1-2.7 1.2-.4-.6.6-6zm-6.2 3.1l.5-1.1 2.6-1.3.4.6-.5 6-.5 1.1-2.5 1.4-.4-.6.4-6.1zm-5.7 3.5l.5-1.2 2.4-1.5.4.6-.4 6.1-.5 1.2-2.3 1.6-.4-.6.3-6.2zm56.3-5.1l-10.2 40.5c-19.5 2.7-35.4 10.3-48.6 25 .7-16.3 1.5-32.7 2.2-49 17.3-11.9 35.9-16.5 56.6-16.5zm-61.6 9.1l.4-1.2 2.2-1.7.4.6-.2 6.3-.4 1.2-2.1 1.8-.4-.6.1-6.4zm-4.5 3l2-1.8.4.6-.1 6.4-.4 1.3-1.9 1.9-.4-.6v-6.5l.4-1.3zm6.9 6.4c-.5 16.5-1.1 33-1.6 49.6l-1.5 2.4c-2.3-.7-4.5-1.6-6.7-2.9-5.2-3-8.9-6.8-11.5-11.5 2.4-19.8 13.7-30.7 21.3-37.6zm-11.2-1.9l1.8-2 .4.6.1 6.5-.3 1.3-1.7 2-.3-.5-.2-6.6.2-1.3zm-3.7 4.8l1.5-2.1.3.6.3 6.7-.2 1.3-1.4 2.1-.3-.5-.4-6.8.2-1.3zm-3.2 5l1.3-2.2.3.6.4 6.8-.2 1.4-1.2 2.2-.3-.6-.5-6.9.2-1.3zm-2.5 5.2l1-2.2.3.6.6 7-.1 1.4-.9 2.3-.3-.6-.7-7 .1-1.5zm-2.7 20c-.2-1.5-.4-3-.6-4.4l.1-2.2.2.6c.4 2.7.9 5.4 1.2 8.2-.4-.7-.7-1.4-.9-2.2zm1.1-.2l-.2-.6c-.4-2.9-1.1-5.8-1.2-8.8l.4-2.2.2.6c.4 2.9 1 5.8 1 8.7l-.2 2.3zm-.2-14.6l.7-2.2.3.6c.3 2.8 1 5.7.8 8.5l-.6 2.3-.2-.6c-.5-2.8-1.1-5.8-1-8.6zm1 22.8l.9 1.9c1 3 1.6 6.2 2.3 9.3l.1.7-1-1.9c-1-3-1.5-6.2-2.2-9.2l-.1-.8zm9.8 57.1l-.5-3.1-.8-4.7-.5-3.1-6.3-35.8c1.7 5.1 3.8 8.5 7.1 12.6l.3.3.3.2c.2.2.4.3.6.5.4.3.8.7 1.2 1 1.1.9 2.2 1.7 3.4 2.5l.9.6 1.5.9c2.7 1.5 5.5 2.8 8.5 3.8 1.4.5 2.9.9 4.4 1.3h.2l.3.1c.5.1.9.2 1.4.3h.2l.3.1h.1l.4.1h.2l.3.1.3.1h.1l.3.1.3.1.3.1h.2l.3.1c7.9 22.3 15.7 44.6 23.6 66.9-10.1-2.5-20.6-5.6-28.8-12.3-8.7-7.1-14.6-15-19.1-25.3l-1-7.5zm5.4 25.6l-1.2-2.8c-.8-3-1.2-6.1-1.8-9.1v-.5c1.6 3.8 2.2 7.7 3 11.8v.6zm3.4 6.3l-1.6-2.6c-1.1-2.9-1.4-6.2-2-9.2v-.6l1.5 2.6c1.1 2.9 1.5 6.2 2.2 9.3l-.1.5zm4.3 5.9l-1.9-2.5c-1.2-2.9-1.6-6.2-2.3-9.3l.1-.6 1.8 2.4.6 1.6 1.9 7.8-.2.6zm5 5.6L132 183l-.7-1.6-1.9-7.9.1-.7 2.1 2.2.7 1.5 2 7.9-.1.9zm5.8 5l-2.6-2.1-.8-1.5-2.1-8 .1-.7 2.5 2 .8 1.5 2.2 8.1-.1.7zm6.7 4.4l-2.9-1.8-.9-1.5-2.3-8.1.2-.8 2.8 1.8.9 1.5 2.4 8.2-.2.7zm7.3 3.9l-3.2-1.5-.9-1.5-2.5-8.2.2-.9 3.1 1.5 1 1.4 2.6 8.3-.3.9zm8.1 3.1l-3.5-1.2-1-1.4-2.7-8.3.3-.9 3.4 1.2 1.1 1.4 2.8 8.4-.4.8zm8.8 2.3l-3.8-.9-1.1-1.4-2.9-8.4.3-1 3.7.9 1.1 1.3 3 8.5-.3 1zm9.6 1.6l-4.1-.6-1.2-1.3-3.1-8.5.3-1.1 4 .5 1.2 1.3 3.2 8.6-.3 1.1zm10.1.8l-4.4-.2-1.3-1.3-3.2-8.6.3-1.2 4.3.2 1.3 1.2 3.3 8.7-.3 1.2zm10.7-.1l-4.6.1-1.3-1.2-3.4-8.7.4-1.2 4.5-.2 1.4 1.2 3.5 8.7-.5 1.3zm11.3-1l-4.9.5-1.4-1.2-3.6-8.8.4-1.3 4.8-.5 1.4 1.1 3.7 8.8-.4 1.4zm11.7-1.7l-5.1.9-1.5-1.1-3.7-8.8.4-1.4 5-.9 1.5 1.1 3.8 8.9-.4 1.3zm12.2-2.6l-5.2 1.2-1.5-1-3.8-8.9.4-1.5 5.2-1.2 1.5 1 3.9 8.9-.5 1.5zm12.5-3.3l-5.4 1.5-1.6-1-4-9 .4-1.5 5.3-1.5 1.6 1 4 9-.3 1.5zm12.9-4.1l-5.5 1.8-1.6-.9-4.1-9 .4-1.6 5.5-1.8 1.6.9 4.1 9-.4 1.6zM275 189l-5.6 2.1-1.6-.9-4.2-9 .5-1.7 5.6-2.1 1.6.9 4.2 9.1-.5 1.6zm13.5-5.3l-5.7 2.3-1.7-.9-4.3-9.1.5-1.7 5.7-2.3 1.7.8 4.3 9.1-.5 1.8zM302 178l-5.8 2.5-1.7-.8-4.3-9.1.5-1.7 5.7-2.5 1.7.8 4.3 9.1-.4 1.7zm13.5-6.1l-5.8 2.6-1.7-.8-4.4-9.1.5-1.8 5.8-2.6 1.7.8 4.4 9.1-.5 1.8zm13.5-6.3l-5.8 2.7-1.7-.8-4.4-9.2.5-1.8 5.8-2.7 1.7.8 4.4 9.1-.5 1.9zm13.1-6.5l-5.3 2.8-1.7-.8-4.4-9.2.5-1.8 2.6-1.5 2.7-1.3 1.7.8 4.4 9.2-.5 1.8zm6-4.5l-4.4-9.2.5-1.8 5.7-2.7 1.7.8 4.4 9.1-.4 1.8-5.7 2.7-1.8-.7zm8.7 13.7l-.9.2-3.1-1.9-.3-1 2-4.2.9-.2 3.1 1.9.3.9-2 4.3zm7.5 4.3l-.9.3-3.2-1.8-.3-.9 1.9-4.2.9-.3 3.2 1.8.3.9-1.9 4.2zm7.6 4.1l-.9.3-3.2-1.7-.3-.9 1.9-4.3.9-.3 3.2 1.7.3.9-1.9 4.3zm7.6 3.8l-.9.3-3.2-1.6-.3-.9 1.8-4.4.9-.3 3.2 1.5.3.9-1.8 4.5zm7.6 3.4l-.9.4-3.3-1.4-.4-.9 1.8-4.4.9-.4 3.3 1.4.4.9-1.8 4.4zm7.8 3.1l-.9.4-3.3-1.3-.4-.9 1.7-4.5.9-.4 3.3 1.2.4.9-1.7 4.6zm7.8 2.7l-.9.5-3.3-1.1-.4-.9 1.7-4.6.9-.4 3.3 1.1.4.8-1.7 4.6zm7.8 2.3l-.8.5-3.3-.9-.4-.8 1.6-4.7.8-.5 3.3.9.4.8-1.6 4.7zm7.8 1.8l-.8.6-3.3-.8-.4-.8 1.6-4.8.8-.5 3.3.7.4.8-1.6 4.8zm7.8 1.4l-.8.6-3.3-.6-.4-.8 1.5-4.9.8-.6 3.3.5.4.8-1.5 5zm7.8.9l-.8.7-3.3-.3-.4-.8 1.4-5 .8-.6 3.3.3.4.8-1.4 4.9zm-62.7-29.6c2.6-5.9 5.2-11.9 7.8-17.8 7.1-3.4 14.2-6.8 21.4-10 15.1 5.3 30 8.4 46.2 8-3.5 13.3-7.1 26.7-10.6 40-23.2-2.1-44.1-9.6-64.8-20.2zm70.5 30l-.8.7-3.3-.1-.4-.8 1.3-5.1.8-.7 3.2.1.4.7-1.2 5.2zm7.6-.1l-.8.8-3.2.1-.4-.7 1.2-5.2.8-.8 3.2-.1.4.7-1.2 5.2zm7.4-.6l-.7.8-3.2.3-.4-.7 1.1-5.4.7-.8 3.1-.4.4.7-1 5.5zm7.3-1.1l-.7.9-3.1.5-.4-.7 1-5.5.7-.9 3-.6.4.7-.9 5.6zm7-1.6l-.7 1-3 .7-.4-.7.9-5.6.7-.9 2.9-.8.4.6-.8 5.7zm6.8-2.1l-.6 1-2.9.9-.4-.6.8-5.7.6-1 2.8-1 .4.6-.7 5.8zm6.5-2.7l-.6 1.1-2.7 1.1-.4-.6.6-5.9.6-1 2.7-1.2.4.6-.6 5.9zm6.2-3l-.5 1.1-2.6 1.3-.4-.6.5-6 .6-1.1 2.5-1.4.4.6-.5 6.1zm5.7-3.5l-.5 1.2-2.4 1.5-.4-.6.4-6.1.5-1.2 2.3-1.6.4.6-.3 6.2zm-56.3 5.1l10.2-40.5c19.5-2.7 35.4-10.3 48.6-25-.7 16.3-1.5 32.7-2.2 49-17.3 11.9-35.9 16.4-56.6 16.5zm61.6-9.1l-.4 1.2-2.2 1.7-.4-.6.2-6.3.4-1.2 2.1-1.8.4.6-.1 6.4zm4.4-3l-2 1.8-.4-.6.1-6.4.4-1.3 1.9-1.9.4.5v6.5l-.4 1.4z" id="path12" fill="url(#SVGID_1_)"/><radialGradient id="SVGID_2_" cx="288.913" cy="223.442" r="378.592" gradientUnits="userSpaceOnUse"><stop offset="0" id="stop15" stop-color="#DFBD90"/><stop offset="1" id="stop17" stop-color="#8D6543"/></radialGradient><path class="st1" d="M32.5 277.2c-4.3-3.8-8.9-4.5-15.5-4.5H0v58.6h11.4v-21.7h7.4c6.8 0 11.6-1.9 14.9-5.2 4.5-4.5 4.8-10.8 4.8-13.1 0-4.2-1.2-9.9-6-14.1zm-8.9 20.7c-2.5 1.8-5.3 1.8-7.5 1.8h-4.7v-17.2h4c2.7 0 5.7.2 8.1 1.8 1.7 1.2 3.3 3.4 3.3 6.7-.1 2.6-1.1 5.2-3.2 6.9z" id="path19" fill="url(#SVGID_2_)"/><radialGradient id="SVGID_3_" cx="288.948" cy="223.442" r="378.636" gradientUnits="userSpaceOnUse"><stop offset="0" id="stop22" stop-color="#DFBD90"/><stop offset="1" id="stop24" stop-color="#8D6543"/></radialGradient><path class="st2" d="M106.3 331.3h12.3l-24.7-59.8h-8.6l-25.4 59.8h12.4l5.2-12.3h23.7l5.1 12.3zM81 309.7l8.4-21.1 8.3 21.1H81z" id="path26" fill="url(#SVGID_3_)"/><radialGradient id="SVGID_4_" cx="288.948" cy="223.442" r="378.636" gradientUnits="userSpaceOnUse"><stop offset="0" id="stop29" stop-color="#DFBD90"/><stop offset="1" id="stop31" stop-color="#8D6543"/></radialGradient><path class="st3" id="polygon33" fill="url(#SVGID_4_)" d="M159.7 321.4v-48.7h-11.4v58.6h29.6v-9.9z"/><radialGradient id="SVGID_5_" cx="288.948" cy="223.442" r="378.636" gradientUnits="userSpaceOnUse"><stop offset="0" id="stop36" stop-color="#DFBD90"/><stop offset="1" id="stop38" stop-color="#8D6543"/></radialGradient><path class="st4" id="polygon40" fill="url(#SVGID_5_)" d="M221 321.4v-48.7h-11.5v58.6h29.6v-9.9z"/><radialGradient id="SVGID_6_" cx="288.948" cy="223.442" r="378.636" gradientUnits="userSpaceOnUse"><stop offset="0" id="stop43" stop-color="#DFBD90"/><stop offset="1" id="stop45" stop-color="#8D6543"/></radialGradient><path class="st5" d="M297.4 271.5h-8.6l-25.4 59.8h12.4L281 319h23.7l5.2 12.3h12.3l-24.8-59.8zm-12.8 38.2l8.4-21.1 8.3 21.1h-16.7z" id="path47" fill="url(#SVGID_6_)"/><radialGradient id="SVGID_7_" cx="288.948" cy="223.442" r="378.636" gradientUnits="userSpaceOnUse"><stop offset="0" id="stop50" stop-color="#DFBD90"/><stop offset="1" id="stop52" stop-color="#8D6543"/></radialGradient><path class="st6" d="M400.2 302c0-9.7-4.1-18.3-11.3-23.6-6.5-4.8-13.6-5.7-21.8-5.7h-15.3v58.6H367c8.2 0 14.6-.8 21.5-5.6 7.7-5.5 11.7-13.9 11.7-23.7zm-19 15.6c-5.1 3.7-11.4 3.9-14.3 3.9h-3.5v-38.9h3.5c3.9 0 9.7.3 14.4 3.9 4.7 3.5 7.2 9.5 7.2 15.6 0 6.2-2.7 12.1-7.3 15.5z" id="path54" fill="url(#SVGID_7_)"/><radialGradient id="SVGID_8_" cx="288.948" cy="223.442" r="378.636" gradientUnits="userSpaceOnUse"><stop offset="0" id="stop57" stop-color="#DFBD90"/><stop offset="1" id="stop59" stop-color="#8D6543"/></radialGradient><path class="st7" id="rect61" fill="url(#SVGID_8_)" d="M433.7 272.7h11.4v58.6h-11.4z"/><radialGradient id="SVGID_9_" cx="288.948" cy="223.442" r="378.636" gradientUnits="userSpaceOnUse"><stop offset="0" id="stop64" stop-color="#DFBD90"/><stop offset="1" id="stop66" stop-color="#8D6543"/></radialGradient><path class="st8" d="M481.4 272.7v35.8c0 5.5.9 11.1 4.4 15.6 4.2 5.5 11.6 8.4 19.2 8.4s15-2.9 19.2-8.4c3.5-4.5 4.4-10.1 4.4-15.6v-35.8h-11.4v36.8c0 4.5-1.5 7.2-2.8 8.7-1.7 2-4.7 4-9.3 4-4.6 0-7.6-2-9.3-4-1.3-1.5-2.8-4.2-2.8-8.7v-36.8h-11.6z" id="path68" fill="url(#SVGID_9_)"/><radialGradient id="SVGID_10_" cx="288.948" cy="223.442" r="378.636" gradientUnits="userSpaceOnUse"><stop offset="0" id="stop71" stop-color="#DFBD90"/><stop offset="1" id="stop73" stop-color="#8D6543"/></radialGradient><path class="st9" id="polygon75" fill="url(#SVGID_10_)" d="M572.7 271.7l-10.9 59.6h11.6l6-36.1 15.4 36.9h3.1l16.1-36.9 5.3 36.1h11.6l-9.9-59.6h-7.9l-16.6 38.2-15.9-38.2z"/><radialGradient id="SVGID_11_" cx="288.948" cy="223.442" r="378.636" gradientUnits="userSpaceOnUse"><stop offset="0" id="stop78" stop-color="#DFBD90"/><stop offset="1" id="stop80" stop-color="#8D6543"/></radialGradient><path class="st10" d="M107.2 398.4c-5 4.7-9.4 12.3-9.4 22.9 0 8.6 2.6 15.9 9.4 22.4 4.9 4.7 11.2 8.2 21.5 8.2 6.3 0 11-1.6 14.5-3.4v-13.3c-3.4 4-8.3 6.4-13.7 6.4-9.9 0-19.9-7-19.9-20 0-10.8 7.7-20.5 19.4-20.5 2.1 0 8.8.4 14.2 6.6v-13.3c-5.4-2.9-10.3-3.6-14.4-3.6-8.4-.1-15.7 2.1-21.6 7.6z" id="path82" fill="url(#SVGID_11_)"/><radialGradient id="SVGID_12_" cx="288.948" cy="223.442" r="378.636" gradientUnits="userSpaceOnUse"><stop offset="0" id="stop85" stop-color="#DFBD90"/><stop offset="1" id="stop87" stop-color="#8D6543"/></radialGradient><path class="st11" id="rect89" fill="url(#SVGID_12_)" d="M176.6 392H188v58.6h-11.4z"/><radialGradient id="SVGID_13_" cx="288.948" cy="223.442" r="378.636" gradientUnits="userSpaceOnUse"><stop offset="0" id="stop92" stop-color="#DFBD90"/><stop offset="1" id="stop94" stop-color="#8D6543"/></radialGradient><path class="st12" id="polygon96" fill="url(#SVGID_13_)" d="M235.8 450.6V411l35.7 40.7h7.9V392h-11.5v39.4l-35.7-40.7h-7.9v59.9z"/><radialGradient id="SVGID_14_" cx="288.948" cy="223.442" r="378.636" gradientUnits="userSpaceOnUse"><stop offset="0" id="stop99" stop-color="#DFBD90"/><stop offset="1" id="stop101" stop-color="#8D6543"/></radialGradient><path class="st13" id="polygon103" fill="url(#SVGID_14_)" d="M327.1 424.8h20.2v-9.9h-20.2v-13h21.1V392h-32.6v58.6h32.6v-9.8h-21.1z"/><radialGradient id="SVGID_15_" cx="288.948" cy="223.442" r="378.636" gradientUnits="userSpaceOnUse"><stop offset="0" id="stop106" stop-color="#DFBD90"/><stop offset="1" id="stop108" stop-color="#8D6543"/></radialGradient><path class="st14" id="polygon110" fill="url(#SVGID_15_)" d="M379.1 450.6h11.7l5.9-36.1 15.4 36.9h3.2l16.1-36.9 5.3 36.1h11.6l-9.9-59.6h-7.9l-16.6 38.3L398 391h-7.9z"/><radialGradient id="SVGID_16_" cx="288.948" cy="223.442" r="378.636" gradientUnits="userSpaceOnUse"><stop offset="0" id="stop113" stop-color="#DFBD90"/><stop offset="1" id="stop115" stop-color="#8D6543"/></radialGradient><path class="st15" d="M500.5 390.8L475 450.6h12.4l5.2-12.3h23.7l5.2 12.3h12.3l-24.7-59.8h-8.6zm-4.3 38.2l8.4-21.1 8.3 21.1h-16.7z" id="path117" fill="url(#SVGID_16_)"/></g></svg>